<svg width="406" height="577" viewBox="0 0 406 577" fill="none" xmlns="http://www.w3.org/2000/svg">
<line x1="144.346" y1="34" x2="144.346" y2="548" stroke="white" stroke-width="2"/>
<path d="M111 31L174 31" stroke="white"/>
<path d="M44.3359 24.925L35.7359 38H37.8359L46.8859 24.2V23.15H36.4859V24.925H44.3359ZM51.9155 31.75C49.2905 31.925 47.9655 33.075 47.9655 35.15C47.9655 37.025 49.7155 38.3 51.6155 38.3C53.5405 38.3 55.0655 37.175 55.2155 36.525L55.1905 38H56.9655V31.05C56.9655 28.675 55.3655 27.4 52.7905 27.4C51.2905 27.4 50.2655 27.7 49.6655 28.025L48.6155 28.7L49.3155 30.05C50.4155 29.175 51.4655 29.025 52.7905 29.025C54.1655 29.025 55.2405 29.65 55.2405 30.825V31.475L51.9155 31.75ZM55.1905 34.475C55.1905 35.5 53.6155 36.65 51.8905 36.65C50.6905 36.65 49.7155 36 49.7155 35C49.7155 34.2 50.3155 33.5 51.8405 33.375L55.1905 33.1V34.475ZM59.7175 27.625V38H61.4925V32.35C61.4925 30.325 62.2175 29.025 64.2925 29.025C65.5675 29.025 66.2175 29.975 66.2175 31.85V38H67.9925V32.25C67.9925 30.075 68.9175 29.025 70.8425 29.025C72.1675 29.025 72.7175 29.8 72.7175 31.7V38H74.4925V31.425C74.4925 28.825 73.3925 27.375 71.1175 27.375C69.4925 27.375 68.0925 27.95 67.3675 29.05C66.9675 28.025 65.9175 27.375 64.7425 27.375C63.3425 27.375 62.1675 27.825 61.4925 28.75V27.625H59.7175Z" fill="white"/>
<path d="M209.375 11.625V22H211.15V16.35C211.15 14.325 211.875 13.025 213.95 13.025C215.225 13.025 215.875 13.975 215.875 15.85V22H217.65V16.25C217.65 14.075 218.575 13.025 220.5 13.025C221.825 13.025 222.375 13.8 222.375 15.7V22H224.15V15.425C224.15 12.825 223.05 11.375 220.775 11.375C219.15 11.375 217.75 11.95 217.025 13.05C216.625 12.025 215.575 11.375 214.4 11.375C213 11.375 211.825 11.825 211.15 12.75V11.625H209.375ZM231.554 11.375C228.604 11.375 226.529 13.65 226.529 16.85C226.529 20.025 228.604 22.275 231.579 22.275C233.504 22.275 235.029 21.4 236.104 19.65L234.654 18.8C233.854 20.025 232.854 20.65 231.654 20.65C229.654 20.65 228.429 19.375 228.329 17.3H236.504V17C236.504 13.625 234.529 11.375 231.554 11.375ZM228.454 15.8C228.629 14.175 229.879 12.975 231.579 12.975C233.204 12.975 234.504 14.1 234.629 15.8H228.454ZM248.72 7.15H246.945V13.1C246.17 11.975 244.87 11.4 243.47 11.4C240.495 11.4 238.37 13.7 238.37 16.8C238.37 19.95 240.52 22.3 243.37 22.3C244.795 22.3 245.995 21.725 246.945 20.575V22H248.72V7.15ZM243.595 13.025C244.595 13.025 245.42 13.4 246.045 14.125C246.67 14.85 246.995 15.75 246.995 16.825C246.995 17.9 246.67 18.825 246.045 19.575C245.42 20.3 244.595 20.675 243.62 20.675C241.695 20.675 240.195 19.025 240.195 16.875C240.195 15.75 240.52 14.85 241.145 14.125C241.795 13.4 242.62 13.025 243.595 13.025ZM251.857 8.4C251.857 9.1 252.407 9.675 253.132 9.675C253.807 9.675 254.382 9.1 254.382 8.4C254.382 7.7 253.832 7.15 253.107 7.15C252.432 7.15 251.857 7.725 251.857 8.4ZM252.257 11.625V22H254.032V11.625H252.257ZM258.003 11.625H256.803V13.25H258.003V18.675C258.003 21.05 258.903 22.3 261.128 22.3C261.703 22.3 262.278 22.175 262.853 21.9L262.328 20.35C261.878 20.5 261.478 20.575 261.128 20.575C260.203 20.575 259.778 19.925 259.778 18.1V13.25H262.428V11.625H259.778V7.15H258.003V11.625ZM268.492 15.75C265.867 15.925 264.542 17.075 264.542 19.15C264.542 21.025 266.292 22.3 268.192 22.3C270.117 22.3 271.642 21.175 271.792 20.525L271.767 22H273.542V15.05C273.542 12.675 271.942 11.4 269.367 11.4C267.867 11.4 266.842 11.7 266.242 12.025L265.192 12.7L265.892 14.05C266.992 13.175 268.042 13.025 269.367 13.025C270.742 13.025 271.817 13.65 271.817 14.825V15.475L268.492 15.75ZM271.767 18.475C271.767 19.5 270.192 20.65 268.467 20.65C267.267 20.65 266.292 20 266.292 19C266.292 18.2 266.892 17.5 268.417 17.375L271.767 17.1V18.475ZM277.119 11.625H275.919V13.25H277.119V18.675C277.119 21.05 278.019 22.3 280.244 22.3C280.819 22.3 281.394 22.175 281.969 21.9L281.444 20.35C280.994 20.5 280.594 20.575 280.244 20.575C279.319 20.575 278.894 19.925 278.894 18.1V13.25H281.544V11.625H278.894V7.15H277.119V11.625ZM288.683 11.375C285.733 11.375 283.658 13.65 283.658 16.85C283.658 20.025 285.733 22.275 288.708 22.275C290.633 22.275 292.158 21.4 293.233 19.65L291.783 18.8C290.983 20.025 289.983 20.65 288.783 20.65C286.783 20.65 285.558 19.375 285.458 17.3H293.633V17C293.633 13.625 291.658 11.375 288.683 11.375ZM285.583 15.8C285.758 14.175 287.008 12.975 288.708 12.975C290.333 12.975 291.633 14.1 291.758 15.8H285.583ZM302.174 8.4C302.174 9.1 302.724 9.675 303.449 9.675C304.124 9.675 304.699 9.1 304.699 8.4C304.699 7.7 304.149 7.15 303.424 7.15C302.749 7.15 302.174 7.725 302.174 8.4ZM302.574 11.625V22H304.349V11.625H302.574ZM307.495 11.625V22H309.27V16.125C309.27 15.25 309.57 14.525 310.145 13.925C310.72 13.3 311.47 13 312.345 13C314.045 13 314.545 13.875 314.545 15.875V22H316.32V15.575C316.32 12.8 315.445 11.375 312.745 11.375C311.32 11.375 310.195 11.8 309.27 12.875V11.625H307.495ZM326.142 11.625H324.942V13.25H326.142V18.675C326.142 21.05 327.042 22.3 329.267 22.3C329.842 22.3 330.417 22.175 330.992 21.9L330.467 20.35C330.017 20.5 329.617 20.575 329.267 20.575C328.342 20.575 327.917 19.925 327.917 18.1V13.25H330.567V11.625H327.917V7.15H326.142V11.625ZM333.301 7.15V22H335.076V16.125C335.076 15.25 335.376 14.525 335.951 13.925C336.526 13.3 337.276 13 338.151 13C339.851 13 340.351 13.875 340.351 15.875V22H342.126V15.575C342.126 12.8 341.251 11.375 338.551 11.375C337.126 11.375 336.001 11.8 335.076 12.875V7.15H333.301ZM349.523 11.375C346.573 11.375 344.498 13.65 344.498 16.85C344.498 20.025 346.573 22.275 349.548 22.275C351.473 22.275 352.998 21.4 354.073 19.65L352.623 18.8C351.823 20.025 350.823 20.65 349.623 20.65C347.623 20.65 346.398 19.375 346.298 17.3H354.473V17C354.473 13.625 352.498 11.375 349.523 11.375ZM346.423 15.8C346.598 14.175 347.848 12.975 349.548 12.975C351.173 12.975 352.473 14.1 352.598 15.8H346.423ZM209.375 42.625V53H211.15V47.125C211.15 46.25 211.45 45.525 212.025 44.925C212.6 44.3 213.35 44 214.225 44C215.925 44 216.425 44.875 216.425 46.875V53H218.2V46.575C218.2 43.8 217.325 42.375 214.625 42.375C213.2 42.375 212.075 42.8 211.15 43.875V42.625H209.375ZM224.522 46.75C221.897 46.925 220.572 48.075 220.572 50.15C220.572 52.025 222.322 53.3 224.222 53.3C226.147 53.3 227.672 52.175 227.822 51.525L227.797 53H229.572V46.05C229.572 43.675 227.972 42.4 225.397 42.4C223.897 42.4 222.872 42.7 222.272 43.025L221.222 43.7L221.922 45.05C223.022 44.175 224.072 44.025 225.397 44.025C226.772 44.025 227.847 44.65 227.847 45.825V46.475L224.522 46.75ZM227.797 49.475C227.797 50.5 226.222 51.65 224.497 51.65C223.297 51.65 222.322 51 222.322 50C222.322 49.2 222.922 48.5 224.447 48.375L227.797 48.1V49.475ZM233.149 42.625H231.949V44.25H233.149V49.675C233.149 52.05 234.049 53.3 236.274 53.3C236.849 53.3 237.424 53.175 237.999 52.9L237.474 51.35C237.024 51.5 236.624 51.575 236.274 51.575C235.349 51.575 234.924 50.925 234.924 49.1V44.25H237.574V42.625H234.924V38.15H233.149V42.625ZM240.308 48.875C240.308 51.775 241.808 53.3 244.708 53.3C247.608 53.3 249.133 51.8 249.133 48.875V42.625H247.358V48.55C247.358 50.575 246.708 51.65 244.708 51.65C242.783 51.65 242.083 50.575 242.083 48.55V42.625H240.308V48.875ZM256.255 44.075C256.655 44.075 256.805 44.125 257.53 44.425L258.43 42.9C257.855 42.55 257.28 42.375 256.705 42.375C255.58 42.375 254.555 42.975 253.98 43.875V42.625H252.205V53H253.98V47.125C253.98 45.45 254.73 44.075 256.255 44.075ZM264.464 42.375C261.514 42.375 259.439 44.65 259.439 47.85C259.439 51.025 261.514 53.275 264.489 53.275C266.414 53.275 267.939 52.4 269.014 50.65L267.564 49.8C266.764 51.025 265.764 51.65 264.564 51.65C262.564 51.65 261.339 50.375 261.239 48.3H269.414V48C269.414 44.625 267.439 42.375 264.464 42.375ZM261.364 46.8C261.539 45.175 262.789 43.975 264.489 43.975C266.114 43.975 267.414 45.1 267.539 46.8H261.364ZM282.28 44.075C282.68 44.075 282.83 44.125 283.555 44.425L284.455 42.9C283.88 42.55 283.305 42.375 282.73 42.375C281.605 42.375 280.58 42.975 280.005 43.875V42.625H278.23V53H280.005V47.125C280.005 45.45 280.755 44.075 282.28 44.075ZM291.038 42.4C288.038 42.4 285.538 44.825 285.538 47.75C285.538 50.85 287.938 53.3 290.988 53.3C294.113 53.3 296.513 50.9 296.513 47.85C296.513 44.825 294.113 42.4 291.038 42.4ZM290.988 51.675C289.913 51.675 289.038 51.325 288.363 50.6C287.688 49.875 287.338 48.925 287.338 47.8C287.338 45.7 288.913 44.025 291.013 44.025C292.088 44.025 292.988 44.375 293.663 45.1C294.363 45.825 294.713 46.725 294.713 47.85C294.713 48.975 294.363 49.875 293.663 50.6C292.963 51.325 292.063 51.675 290.988 51.675ZM304.002 42.4C301.002 42.4 298.502 44.825 298.502 47.75C298.502 50.85 300.902 53.3 303.952 53.3C307.077 53.3 309.477 50.9 309.477 47.85C309.477 44.825 307.077 42.4 304.002 42.4ZM303.952 51.675C302.877 51.675 302.002 51.325 301.327 50.6C300.652 49.875 300.302 48.925 300.302 47.8C300.302 45.7 301.877 44.025 303.977 44.025C305.052 44.025 305.952 44.375 306.627 45.1C307.327 45.825 307.677 46.725 307.677 47.85C307.677 48.975 307.327 49.875 306.627 50.6C305.927 51.325 305.027 51.675 303.952 51.675ZM311.841 42.625V53H313.616V47.35C313.616 45.325 314.341 44.025 316.416 44.025C317.691 44.025 318.341 44.975 318.341 46.85V53H320.116V47.25C320.116 45.075 321.041 44.025 322.966 44.025C324.291 44.025 324.841 44.8 324.841 46.7V53H326.616V46.425C326.616 43.825 325.516 42.375 323.241 42.375C321.616 42.375 320.216 42.95 319.491 44.05C319.091 43.025 318.041 42.375 316.866 42.375C315.466 42.375 314.291 42.825 313.616 43.75V42.625H311.841Z" fill="white"/>
<path d="M111 134L175 134" stroke="white"/>
<path d="M38.4062 133.325C37.0812 134.05 36.3562 135.3 36.3562 136.875C36.3562 139.35 38.4062 141.275 40.9562 141.275C43.5062 141.275 45.4562 139.375 45.4562 136.85C45.4562 135.325 44.7312 134.025 43.4562 133.325C44.5312 132.625 45.1562 131.4 45.1562 130.1C45.1562 127.775 43.3312 125.975 40.9562 125.975C38.5562 125.975 36.7312 127.775 36.7312 130.1C36.7312 131.425 37.3312 132.6 38.4062 133.325ZM43.3562 130.125C43.3562 131.45 42.2812 132.525 40.9562 132.525C39.5812 132.525 38.5312 131.45 38.5312 130.075C38.5312 129.45 38.7812 128.9 39.2562 128.425C39.7312 127.95 40.3062 127.7 40.9562 127.7C42.2812 127.7 43.3562 128.8 43.3562 130.125ZM40.9062 139.525C39.4062 139.525 38.2062 138.325 38.2062 136.8C38.2062 136.075 38.4812 135.475 39.0062 134.95C39.5312 134.425 40.1812 134.175 40.9062 134.175C41.6562 134.175 42.2812 134.45 42.8062 134.975C43.3312 135.5 43.6062 136.125 43.6062 136.85C43.6062 137.575 43.3312 138.225 42.8062 138.75C42.2812 139.275 41.6312 139.525 40.9062 139.525ZM51.9155 134.75C49.2905 134.925 47.9655 136.075 47.9655 138.15C47.9655 140.025 49.7155 141.3 51.6155 141.3C53.5405 141.3 55.0655 140.175 55.2155 139.525L55.1905 141H56.9655V134.05C56.9655 131.675 55.3655 130.4 52.7905 130.4C51.2905 130.4 50.2655 130.7 49.6655 131.025L48.6155 131.7L49.3155 133.05C50.4155 132.175 51.4655 132.025 52.7905 132.025C54.1655 132.025 55.2405 132.65 55.2405 133.825V134.475L51.9155 134.75ZM55.1905 137.475C55.1905 138.5 53.6155 139.65 51.8905 139.65C50.6905 139.65 49.7155 139 49.7155 138C49.7155 137.2 50.3155 136.5 51.8405 136.375L55.1905 136.1V137.475ZM59.7175 130.625V141H61.4925V135.35C61.4925 133.325 62.2175 132.025 64.2925 132.025C65.5675 132.025 66.2175 132.975 66.2175 134.85V141H67.9925V135.25C67.9925 133.075 68.9175 132.025 70.8425 132.025C72.1675 132.025 72.7175 132.8 72.7175 134.7V141H74.4925V134.425C74.4925 131.825 73.3925 130.375 71.1175 130.375C69.4925 130.375 68.0925 130.95 67.3675 132.05C66.9675 131.025 65.9175 130.375 64.7425 130.375C63.3425 130.375 62.1675 130.825 61.4925 131.75V130.625H59.7175Z" fill="white"/>
<path d="M214.525 114.4C211.4 114.4 209 116.8 209 119.875C209 122.925 211.425 125.3 214.5 125.3C215.7 125.3 216.55 125.025 217.825 124.225L217.3 122.725C216.325 123.4 215.575 123.65 214.45 123.65C212.375 123.65 210.75 122 210.75 119.85C210.75 117.75 212.375 116.025 214.475 116.025C215.575 116.025 216.075 116.125 217.1 116.8L217.75 115.375C216.675 114.675 215.75 114.4 214.525 114.4ZM225.071 114.4C222.071 114.4 219.571 116.825 219.571 119.75C219.571 122.85 221.971 125.3 225.021 125.3C228.146 125.3 230.546 122.9 230.546 119.85C230.546 116.825 228.146 114.4 225.071 114.4ZM225.021 123.675C223.946 123.675 223.071 123.325 222.396 122.6C221.721 121.875 221.371 120.925 221.371 119.8C221.371 117.7 222.946 116.025 225.046 116.025C226.121 116.025 227.021 116.375 227.696 117.1C228.396 117.825 228.746 118.725 228.746 119.85C228.746 120.975 228.396 121.875 227.696 122.6C226.996 123.325 226.096 123.675 225.021 123.675ZM233.235 110.15V125H235.01V110.15H233.235ZM248.061 110.15H246.286V116.1C245.511 114.975 244.211 114.4 242.811 114.4C239.836 114.4 237.711 116.7 237.711 119.8C237.711 122.95 239.861 125.3 242.711 125.3C244.136 125.3 245.336 124.725 246.286 123.575V125H248.061V110.15ZM242.936 116.025C243.936 116.025 244.761 116.4 245.386 117.125C246.011 117.85 246.336 118.75 246.336 119.825C246.336 120.9 246.011 121.825 245.386 122.575C244.761 123.3 243.936 123.675 242.961 123.675C241.036 123.675 239.536 122.025 239.536 119.875C239.536 118.75 239.861 117.85 240.486 117.125C241.136 116.4 241.961 116.025 242.936 116.025ZM257.722 129.4H259.497V123.6C260.522 124.775 261.647 125.3 263.122 125.3C265.972 125.3 268.072 123 268.072 119.9C268.072 116.75 265.922 114.4 263.072 114.4C261.472 114.4 260.497 114.925 259.497 116.125V114.625H257.722V129.4ZM262.847 123.675C261.847 123.675 261.022 123.325 260.397 122.6C259.772 121.875 259.447 120.95 259.447 119.875C259.447 118.8 259.772 117.875 260.397 117.15C261.022 116.4 261.847 116.025 262.822 116.025C264.747 116.025 266.247 117.675 266.247 119.825C266.247 120.95 265.922 121.875 265.272 122.6C264.647 123.325 263.822 123.675 262.847 123.675ZM270.784 110.15V125H272.559V110.15H270.784ZM275.635 120.875C275.635 123.775 277.135 125.3 280.035 125.3C282.935 125.3 284.46 123.8 284.46 120.875V114.625H282.685V120.55C282.685 122.575 282.035 123.65 280.035 123.65C278.11 123.65 277.41 122.575 277.41 120.55V114.625H275.635V120.875ZM287.207 114.625V125H288.982V119.125C288.982 118.25 289.282 117.525 289.857 116.925C290.432 116.3 291.182 116 292.057 116C293.757 116 294.257 116.875 294.257 118.875V125H296.032V118.575C296.032 115.8 295.157 114.375 292.457 114.375C291.032 114.375 289.907 114.8 288.982 115.875V114.625H287.207ZM307.904 114.625C306.829 114.625 306.054 114.775 305.529 115.075C304.779 114.6 303.929 114.375 302.954 114.375C300.454 114.375 298.504 116.175 298.504 118.475C298.504 119.975 299.229 121.275 300.404 122.075C299.504 122.475 299.054 123.125 299.054 123.85C299.054 125.125 300.054 126 302.429 125.875L304.054 125.8C305.329 125.725 305.954 125.975 305.954 126.775C305.954 127.625 304.979 128.05 303.004 128.05C301.529 128.05 300.704 127.775 299.679 127.15L298.679 128.375C299.779 129.25 301.304 129.675 303.279 129.675C306.004 129.675 307.654 128.7 307.654 126.9C307.654 125.225 306.679 124.4 304.704 124.4C304.429 124.4 304.204 124.4 304.054 124.425C303.029 124.5 302.379 124.525 302.154 124.525C301.029 124.525 300.579 124.325 300.579 123.725C300.579 123.1 301.354 122.85 302.929 122.85C305.479 122.85 307.429 121 307.429 118.525C307.429 117.575 307.154 116.75 306.604 116.05H307.904V114.625ZM305.679 118.55C305.679 120.125 304.554 121.25 302.954 121.25C301.379 121.25 300.279 120.1 300.279 118.5C300.279 117.075 301.404 115.925 302.979 115.925C304.554 115.925 305.679 117.05 305.679 118.55ZM314.831 114.375C311.881 114.375 309.806 116.65 309.806 119.85C309.806 123.025 311.881 125.275 314.856 125.275C316.781 125.275 318.306 124.4 319.381 122.65L317.931 121.8C317.131 123.025 316.131 123.65 314.931 123.65C312.931 123.65 311.706 122.375 311.606 120.3H319.781V120C319.781 116.625 317.806 114.375 314.831 114.375ZM311.731 118.8C311.906 117.175 313.156 115.975 314.856 115.975C316.481 115.975 317.781 117.1 317.906 118.8H311.731ZM333.221 118.5V123.55H334.746V118.5H339.871V116.975H334.746V111.95H333.221V116.975H328.096V118.5H333.221ZM209.7 141.15V156H211.475V154.575C212.425 155.725 213.625 156.3 215.05 156.3C217.9 156.3 220.05 153.95 220.05 150.8C220.05 147.7 217.9 145.4 215.05 145.4C213.625 145.4 212.475 145.925 211.475 147.1V141.15H209.7ZM214.8 154.675C213.825 154.675 213 154.3 212.375 153.575C211.75 152.825 211.425 151.9 211.425 150.825C211.425 149.75 211.75 148.85 212.375 148.125C213 147.4 213.825 147.025 214.825 147.025C215.8 147.025 216.625 147.4 217.25 148.125C217.9 148.85 218.225 149.75 218.225 150.875C218.225 153.025 216.725 154.675 214.8 154.675ZM226.812 147.075C227.212 147.075 227.362 147.125 228.087 147.425L228.987 145.9C228.412 145.55 227.837 145.375 227.262 145.375C226.137 145.375 225.112 145.975 224.537 146.875V145.625H222.762V156H224.537V150.125C224.537 148.45 225.287 147.075 226.812 147.075ZM235.021 145.375C232.071 145.375 229.996 147.65 229.996 150.85C229.996 154.025 232.071 156.275 235.046 156.275C236.971 156.275 238.496 155.4 239.571 153.65L238.121 152.8C237.321 154.025 236.321 154.65 235.121 154.65C233.121 154.65 231.896 153.375 231.796 151.3H239.971V151C239.971 147.625 237.996 145.375 235.021 145.375ZM231.921 149.8C232.096 148.175 233.346 146.975 235.046 146.975C236.671 146.975 237.971 148.1 238.096 149.8H231.921ZM245.543 149.75C242.918 149.925 241.593 151.075 241.593 153.15C241.593 155.025 243.343 156.3 245.243 156.3C247.168 156.3 248.693 155.175 248.843 154.525L248.818 156H250.593V149.05C250.593 146.675 248.993 145.4 246.418 145.4C244.918 145.4 243.893 145.7 243.293 146.025L242.243 146.7L242.943 148.05C244.043 147.175 245.093 147.025 246.418 147.025C247.793 147.025 248.868 147.65 248.868 148.825V149.475L245.543 149.75ZM248.818 152.475C248.818 153.5 247.243 154.65 245.518 154.65C244.318 154.65 243.343 154 243.343 153C243.343 152.2 243.943 151.5 245.468 151.375L248.818 151.1V152.475ZM254.17 145.625H252.97V147.25H254.17V152.675C254.17 155.05 255.07 156.3 257.295 156.3C257.87 156.3 258.445 156.175 259.02 155.9L258.495 154.35C258.045 154.5 257.645 154.575 257.295 154.575C256.37 154.575 255.945 153.925 255.945 152.1V147.25H258.595V145.625H255.945V141.15H254.17V145.625ZM261.328 141.15V156H263.103V150.125C263.103 149.25 263.403 148.525 263.978 147.925C264.553 147.3 265.303 147 266.178 147C267.878 147 268.378 147.875 268.378 149.875V156H270.153V149.575C270.153 146.8 269.278 145.375 266.578 145.375C265.153 145.375 264.028 145.8 263.103 146.875V141.15H261.328ZM272.025 149.875V151.475H276.55V149.875H272.025ZM277.243 145.625L281.618 156H282.243L285.143 149L288.043 156H288.668L293.093 145.625H291.218L288.368 152.625L285.518 145.625H284.818L281.943 152.625L279.118 145.625H277.243ZM299.437 145.4C296.437 145.4 293.937 147.825 293.937 150.75C293.937 153.85 296.337 156.3 299.387 156.3C302.512 156.3 304.912 153.9 304.912 150.85C304.912 147.825 302.512 145.4 299.437 145.4ZM299.387 154.675C298.312 154.675 297.437 154.325 296.762 153.6C296.087 152.875 295.737 151.925 295.737 150.8C295.737 148.7 297.312 147.025 299.412 147.025C300.487 147.025 301.387 147.375 302.062 148.1C302.762 148.825 303.112 149.725 303.112 150.85C303.112 151.975 302.762 152.875 302.062 153.6C301.362 154.325 300.462 154.675 299.387 154.675ZM311.65 147.075C312.05 147.075 312.2 147.125 312.925 147.425L313.825 145.9C313.25 145.55 312.675 145.375 312.1 145.375C310.975 145.375 309.95 145.975 309.375 146.875V145.625H307.6V156H309.375V150.125C309.375 148.45 310.125 147.075 311.65 147.075ZM315.608 141.15V156H317.383V151.75L317.833 151.275L322.083 156H324.308L319.033 150.1L323.508 145.625H321.308L317.383 149.475V141.15H315.608Z" fill="white"/>
<path d="M111 237L175 237" stroke="white"/>
<path d="M44.4261 237.45C45.2511 236.3 45.6511 235.15 45.6511 234C45.6511 231.25 43.3011 228.95 40.5011 228.95C37.6761 228.95 35.3761 231.25 35.3761 234.075C35.3761 236.8 37.6511 239.025 40.1761 239.025C40.4761 239.025 40.8011 238.975 41.1761 238.9L37.5261 244H39.7261L44.4261 237.45ZM40.5011 230.7C42.3261 230.7 43.8011 232.225 43.8011 234.025C43.8011 235.85 42.3261 237.325 40.5011 237.325C38.7011 237.325 37.2261 235.825 37.2261 233.975C37.2261 232.225 38.7511 230.7 40.5011 230.7ZM51.9155 237.75C49.2905 237.925 47.9655 239.075 47.9655 241.15C47.9655 243.025 49.7155 244.3 51.6155 244.3C53.5405 244.3 55.0655 243.175 55.2155 242.525L55.1905 244H56.9655V237.05C56.9655 234.675 55.3655 233.4 52.7905 233.4C51.2905 233.4 50.2655 233.7 49.6655 234.025L48.6155 234.7L49.3155 236.05C50.4155 235.175 51.4655 235.025 52.7905 235.025C54.1655 235.025 55.2405 235.65 55.2405 236.825V237.475L51.9155 237.75ZM55.1905 240.475C55.1905 241.5 53.6155 242.65 51.8905 242.65C50.6905 242.65 49.7155 242 49.7155 241C49.7155 240.2 50.3155 239.5 51.8405 239.375L55.1905 239.1V240.475ZM59.7175 233.625V244H61.4925V238.35C61.4925 236.325 62.2175 235.025 64.2925 235.025C65.5675 235.025 66.2175 235.975 66.2175 237.85V244H67.9925V238.25C67.9925 236.075 68.9175 235.025 70.8425 235.025C72.1675 235.025 72.7175 235.8 72.7175 237.7V244H74.4925V237.425C74.4925 234.825 73.3925 233.375 71.1175 233.375C69.4925 233.375 68.0925 233.95 67.3675 235.05C66.9675 234.025 65.9175 233.375 64.7425 233.375C63.3425 233.375 62.1675 233.825 61.4925 234.75V233.625H59.7175Z" fill="white"/>
<path d="M214.525 217.4C211.4 217.4 209 219.8 209 222.875C209 225.925 211.425 228.3 214.5 228.3C215.7 228.3 216.55 228.025 217.825 227.225L217.3 225.725C216.325 226.4 215.575 226.65 214.45 226.65C212.375 226.65 210.75 225 210.75 222.85C210.75 220.75 212.375 219.025 214.475 219.025C215.575 219.025 216.075 219.125 217.1 219.8L217.75 218.375C216.675 217.675 215.75 217.4 214.525 217.4ZM225.071 217.4C222.071 217.4 219.571 219.825 219.571 222.75C219.571 225.85 221.971 228.3 225.021 228.3C228.146 228.3 230.546 225.9 230.546 222.85C230.546 219.825 228.146 217.4 225.071 217.4ZM225.021 226.675C223.946 226.675 223.071 226.325 222.396 225.6C221.721 224.875 221.371 223.925 221.371 222.8C221.371 220.7 222.946 219.025 225.046 219.025C226.121 219.025 227.021 219.375 227.696 220.1C228.396 220.825 228.746 221.725 228.746 222.85C228.746 223.975 228.396 224.875 227.696 225.6C226.996 226.325 226.096 226.675 225.021 226.675ZM232.035 221.875V223.475H236.56V221.875H232.035ZM237.253 217.625L241.628 228H242.253L245.153 221L248.053 228H248.678L253.103 217.625H251.228L248.378 224.625L245.528 217.625H244.828L241.953 224.625L239.128 217.625H237.253ZM259.446 217.4C256.446 217.4 253.946 219.825 253.946 222.75C253.946 225.85 256.346 228.3 259.396 228.3C262.521 228.3 264.921 225.9 264.921 222.85C264.921 219.825 262.521 217.4 259.446 217.4ZM259.396 226.675C258.321 226.675 257.446 226.325 256.771 225.6C256.096 224.875 255.746 223.925 255.746 222.8C255.746 220.7 257.321 219.025 259.421 219.025C260.496 219.025 261.396 219.375 262.071 220.1C262.771 220.825 263.121 221.725 263.121 222.85C263.121 223.975 262.771 224.875 262.071 225.6C261.371 226.325 260.471 226.675 259.396 226.675ZM271.66 219.075C272.06 219.075 272.21 219.125 272.935 219.425L273.835 217.9C273.26 217.55 272.685 217.375 272.11 217.375C270.985 217.375 269.96 217.975 269.385 218.875V217.625H267.61V228H269.385V222.125C269.385 220.45 270.135 219.075 271.66 219.075ZM275.618 213.15V228H277.393V223.75L277.843 223.275L282.093 228H284.318L279.043 222.1L283.518 217.625H281.318L277.393 221.475V213.15H275.618ZM292.115 214.4C292.115 215.1 292.665 215.675 293.39 215.675C294.065 215.675 294.64 215.1 294.64 214.4C294.64 213.7 294.09 213.15 293.365 213.15C292.69 213.15 292.115 213.725 292.115 214.4ZM292.515 217.625V228H294.29V217.625H292.515ZM297.437 217.625V228H299.212V222.125C299.212 221.25 299.512 220.525 300.087 219.925C300.662 219.3 301.412 219 302.287 219C303.987 219 304.487 219.875 304.487 221.875V228H306.262V221.575C306.262 218.8 305.387 217.375 302.687 217.375C301.262 217.375 300.137 217.8 299.212 218.875V217.625H297.437ZM320.384 217.4C317.384 217.4 314.884 219.825 314.884 222.75C314.884 225.85 317.284 228.3 320.334 228.3C323.459 228.3 325.859 225.9 325.859 222.85C325.859 219.825 323.459 217.4 320.384 217.4ZM320.334 226.675C319.259 226.675 318.384 226.325 317.709 225.6C317.034 224.875 316.684 223.925 316.684 222.8C316.684 220.7 318.259 219.025 320.359 219.025C321.434 219.025 322.334 219.375 323.009 220.1C323.709 220.825 324.059 221.725 324.059 222.85C324.059 223.975 323.709 224.875 323.009 225.6C322.309 226.325 321.409 226.675 320.334 226.675ZM328.223 223.875C328.223 226.775 329.723 228.3 332.623 228.3C335.523 228.3 337.048 226.8 337.048 223.875V217.625H335.273V223.55C335.273 225.575 334.623 226.65 332.623 226.65C330.698 226.65 329.998 225.575 329.998 223.55V217.625H328.223V223.875ZM344.17 219.075C344.57 219.075 344.72 219.125 345.445 219.425L346.345 217.9C345.77 217.55 345.195 217.375 344.62 217.375C343.495 217.375 342.47 217.975 341.895 218.875V217.625H340.12V228H341.895V222.125C341.895 220.45 342.645 219.075 344.17 219.075ZM214.5 248.4C211.5 248.4 209 250.825 209 253.75C209 256.85 211.4 259.3 214.45 259.3C217.575 259.3 219.975 256.9 219.975 253.85C219.975 250.825 217.575 248.4 214.5 248.4ZM214.45 257.675C213.375 257.675 212.5 257.325 211.825 256.6C211.15 255.875 210.8 254.925 210.8 253.8C210.8 251.7 212.375 250.025 214.475 250.025C215.55 250.025 216.45 250.375 217.125 251.1C217.825 251.825 218.175 252.725 218.175 253.85C218.175 254.975 217.825 255.875 217.125 256.6C216.425 257.325 215.525 257.675 214.45 257.675ZM222.664 263.4H224.439V257.6C225.464 258.775 226.589 259.3 228.064 259.3C230.914 259.3 233.014 257 233.014 253.9C233.014 250.75 230.864 248.4 228.014 248.4C226.414 248.4 225.439 248.925 224.439 250.125V248.625H222.664V263.4ZM227.789 257.675C226.789 257.675 225.964 257.325 225.339 256.6C224.714 255.875 224.389 254.95 224.389 253.875C224.389 252.8 224.714 251.875 225.339 251.15C225.964 250.4 226.789 250.025 227.764 250.025C229.689 250.025 231.189 251.675 231.189 253.825C231.189 254.95 230.864 255.875 230.214 256.6C229.589 257.325 228.764 257.675 227.789 257.675ZM240.05 248.375C237.1 248.375 235.025 250.65 235.025 253.85C235.025 257.025 237.1 259.275 240.075 259.275C242 259.275 243.525 258.4 244.6 256.65L243.15 255.8C242.35 257.025 241.35 257.65 240.15 257.65C238.15 257.65 236.925 256.375 236.825 254.3H245V254C245 250.625 243.025 248.375 240.05 248.375ZM236.95 252.8C237.125 251.175 238.375 249.975 240.075 249.975C241.7 249.975 243 251.1 243.125 252.8H236.95ZM247.241 248.625V259H249.016V253.125C249.016 252.25 249.316 251.525 249.891 250.925C250.466 250.3 251.216 250 252.091 250C253.791 250 254.291 250.875 254.291 252.875V259H256.066V252.575C256.066 249.8 255.191 248.375 252.491 248.375C251.066 248.375 249.941 248.8 249.016 249.875V248.625H247.241ZM264.563 257.775C265.638 258.75 267.113 259.3 268.613 259.3C271.388 259.3 273.013 258.05 273.013 256.025C273.013 254.35 271.813 253.525 269.538 253.025C267.438 252.6 266.738 252.325 266.738 251.5C266.738 250.575 267.563 250.025 269.063 250.025C270.038 250.025 270.988 250.375 271.938 251.075L272.588 249.625C271.688 248.85 270.438 248.4 269.063 248.4C266.563 248.4 264.963 249.65 264.963 251.525C264.963 253.125 266.363 254.05 268.363 254.475C269.938 254.8 270.488 254.925 270.913 255.325C271.138 255.525 271.263 255.8 271.263 256.125C271.263 257 270.263 257.65 268.763 257.65C267.588 257.65 266.763 257.35 265.688 256.55L264.563 257.775ZM275.594 263.4H277.369V257.6C278.394 258.775 279.519 259.3 280.994 259.3C283.844 259.3 285.944 257 285.944 253.9C285.944 250.75 283.794 248.4 280.944 248.4C279.344 248.4 278.369 248.925 277.369 250.125V248.625H275.594V263.4ZM280.719 257.675C279.719 257.675 278.894 257.325 278.269 256.6C277.644 255.875 277.319 254.95 277.319 253.875C277.319 252.8 277.644 251.875 278.269 251.15C278.894 250.4 279.719 250.025 280.694 250.025C282.619 250.025 284.119 251.675 284.119 253.825C284.119 254.95 283.794 255.875 283.144 256.6C282.519 257.325 281.694 257.675 280.719 257.675ZM291.661 252.75C289.036 252.925 287.711 254.075 287.711 256.15C287.711 258.025 289.461 259.3 291.361 259.3C293.286 259.3 294.811 258.175 294.961 257.525L294.936 259H296.711V252.05C296.711 249.675 295.111 248.4 292.536 248.4C291.036 248.4 290.011 248.7 289.411 249.025L288.361 249.7L289.061 251.05C290.161 250.175 291.211 250.025 292.536 250.025C293.911 250.025 294.986 250.65 294.986 251.825V252.475L291.661 252.75ZM294.936 255.475C294.936 256.5 293.361 257.65 291.636 257.65C290.436 257.65 289.461 257 289.461 256C289.461 255.2 290.061 254.5 291.586 254.375L294.936 254.1V255.475ZM304.613 248.4C301.488 248.4 299.088 250.8 299.088 253.875C299.088 256.925 301.513 259.3 304.588 259.3C305.788 259.3 306.638 259.025 307.913 258.225L307.388 256.725C306.413 257.4 305.663 257.65 304.538 257.65C302.463 257.65 300.838 256 300.838 253.85C300.838 251.75 302.463 250.025 304.563 250.025C305.663 250.025 306.163 250.125 307.188 250.8L307.838 249.375C306.763 248.675 305.838 248.4 304.613 248.4ZM314.684 248.375C311.734 248.375 309.659 250.65 309.659 253.85C309.659 257.025 311.734 259.275 314.709 259.275C316.634 259.275 318.159 258.4 319.234 256.65L317.784 255.8C316.984 257.025 315.984 257.65 314.784 257.65C312.784 257.65 311.559 256.375 311.459 254.3H319.634V254C319.634 250.625 317.659 248.375 314.684 248.375ZM311.584 252.8C311.759 251.175 313.009 249.975 314.709 249.975C316.334 249.975 317.634 251.1 317.759 252.8H311.584Z" fill="white"/>
<path d="M111 340L175 340" stroke="white"/>
<path d="M28.4131 333.925V347H30.2881V332.15H26.4131V333.925H28.4131ZM42.0498 336.35C42.0498 336.875 41.8748 337.45 41.5248 338.075C41.1748 338.675 40.5248 339.525 39.5498 340.65L34.8748 346.075V347H43.8748V345.25H37.9248L40.7248 342.025C43.4248 338.925 43.8248 338.175 43.8998 336.4C43.8998 333.925 41.8248 331.95 39.2248 331.95C36.4498 331.95 34.8748 333.575 34.5498 336.675H36.4748C36.5748 334.775 37.5498 333.675 39.2498 333.675C40.8248 333.675 42.0498 334.85 42.0498 336.35ZM47.1092 351.4H48.8842V345.6C49.9092 346.775 51.0342 347.3 52.5092 347.3C55.3592 347.3 57.4592 345 57.4592 341.9C57.4592 338.75 55.3092 336.4 52.4592 336.4C50.8592 336.4 49.8842 336.925 48.8842 338.125V336.625H47.1092V351.4ZM52.2342 345.675C51.2342 345.675 50.4092 345.325 49.7842 344.6C49.1592 343.875 48.8342 342.95 48.8342 341.875C48.8342 340.8 49.1592 339.875 49.7842 339.15C50.4092 338.4 51.2342 338.025 52.2092 338.025C54.1342 338.025 55.6342 339.675 55.6342 341.825C55.6342 342.95 55.3092 343.875 54.6592 344.6C54.0342 345.325 53.2092 345.675 52.2342 345.675ZM59.8457 336.625V347H61.6207V341.35C61.6207 339.325 62.3457 338.025 64.4207 338.025C65.6957 338.025 66.3457 338.975 66.3457 340.85V347H68.1207V341.25C68.1207 339.075 69.0457 338.025 70.9707 338.025C72.2957 338.025 72.8457 338.8 72.8457 340.7V347H74.6207V340.425C74.6207 337.825 73.5207 336.375 71.2457 336.375C69.6207 336.375 68.2207 336.95 67.4957 338.05C67.0957 337.025 66.0457 336.375 64.8707 336.375C63.4707 336.375 62.2957 336.825 61.6207 337.75V336.625H59.8457Z" fill="white"/>
<path d="M209.375 320.625V331H211.15V325.125C211.15 324.25 211.45 323.525 212.025 322.925C212.6 322.3 213.35 322 214.225 322C215.925 322 216.425 322.875 216.425 324.875V331H218.2V324.575C218.2 321.8 217.325 320.375 214.625 320.375C213.2 320.375 212.075 320.8 211.15 321.875V320.625H209.375ZM226.072 320.4C223.072 320.4 220.572 322.825 220.572 325.75C220.572 328.85 222.972 331.3 226.022 331.3C229.147 331.3 231.547 328.9 231.547 325.85C231.547 322.825 229.147 320.4 226.072 320.4ZM226.022 329.675C224.947 329.675 224.072 329.325 223.397 328.6C222.722 327.875 222.372 326.925 222.372 325.8C222.372 323.7 223.947 322.025 226.047 322.025C227.122 322.025 228.022 322.375 228.697 323.1C229.397 323.825 229.747 324.725 229.747 325.85C229.747 326.975 229.397 327.875 228.697 328.6C227.997 329.325 227.097 329.675 226.022 329.675ZM233.036 324.875V326.475H237.561V324.875H233.036ZM240.254 320.625H239.054V322.25H240.254V327.675C240.254 330.05 241.154 331.3 243.379 331.3C243.954 331.3 244.529 331.175 245.104 330.9L244.579 329.35C244.129 329.5 243.729 329.575 243.379 329.575C242.454 329.575 242.029 328.925 242.029 327.1V322.25H244.679V320.625H242.029V316.15H240.254V320.625ZM251.818 320.375C248.868 320.375 246.793 322.65 246.793 325.85C246.793 329.025 248.868 331.275 251.843 331.275C253.768 331.275 255.293 330.4 256.368 328.65L254.918 327.8C254.118 329.025 253.118 329.65 251.918 329.65C249.918 329.65 248.693 328.375 248.593 326.3H256.768V326C256.768 322.625 254.793 320.375 251.818 320.375ZM248.718 324.8C248.893 323.175 250.143 321.975 251.843 321.975C253.468 321.975 254.768 323.1 254.893 324.8H248.718ZM264.159 320.4C261.034 320.4 258.634 322.8 258.634 325.875C258.634 328.925 261.059 331.3 264.134 331.3C265.334 331.3 266.184 331.025 267.459 330.225L266.934 328.725C265.959 329.4 265.209 329.65 264.084 329.65C262.009 329.65 260.384 328 260.384 325.85C260.384 323.75 262.009 322.025 264.109 322.025C265.209 322.025 265.709 322.125 266.734 322.8L267.384 321.375C266.309 320.675 265.384 320.4 264.159 320.4ZM269.824 316.15V331H271.599V325.125C271.599 324.25 271.899 323.525 272.474 322.925C273.049 322.3 273.799 322 274.674 322C276.374 322 276.874 322.875 276.874 324.875V331H278.649V324.575C278.649 321.8 277.774 320.375 275.074 320.375C273.649 320.375 272.524 320.8 271.599 321.875V316.15H269.824ZM288.471 320.625H287.271V322.25H288.471V327.675C288.471 330.05 289.371 331.3 291.596 331.3C292.171 331.3 292.746 331.175 293.321 330.9L292.796 329.35C292.346 329.5 291.946 329.575 291.596 329.575C290.671 329.575 290.246 328.925 290.246 327.1V322.25H292.896V320.625H290.246V316.15H288.471V320.625ZM300.036 320.375C297.086 320.375 295.011 322.65 295.011 325.85C295.011 329.025 297.086 331.275 300.061 331.275C301.986 331.275 303.511 330.4 304.586 328.65L303.136 327.8C302.336 329.025 301.336 329.65 300.136 329.65C298.136 329.65 296.911 328.375 296.811 326.3H304.986V326C304.986 322.625 303.011 320.375 300.036 320.375ZM296.936 324.8C297.111 323.175 298.361 321.975 300.061 321.975C301.686 321.975 302.986 323.1 303.111 324.8H296.936ZM310.557 324.75C307.932 324.925 306.607 326.075 306.607 328.15C306.607 330.025 308.357 331.3 310.257 331.3C312.182 331.3 313.707 330.175 313.857 329.525L313.832 331H315.607V324.05C315.607 321.675 314.007 320.4 311.432 320.4C309.932 320.4 308.907 320.7 308.307 321.025L307.257 321.7L307.957 323.05C309.057 322.175 310.107 322.025 311.432 322.025C312.807 322.025 313.882 322.65 313.882 323.825V324.475L310.557 324.75ZM313.832 327.475C313.832 328.5 312.257 329.65 310.532 329.65C309.332 329.65 308.357 329 308.357 328C308.357 327.2 308.957 326.5 310.482 326.375L313.832 326.1V327.475ZM325.434 320.625H324.234V322.25H325.434V327.675C325.434 330.05 326.334 331.3 328.559 331.3C329.134 331.3 329.709 331.175 330.284 330.9L329.759 329.35C329.309 329.5 328.909 329.575 328.559 329.575C327.634 329.575 327.209 328.925 327.209 327.1V322.25H329.859V320.625H327.209V316.15H325.434V320.625ZM332.521 317.4C332.521 318.1 333.071 318.675 333.796 318.675C334.471 318.675 335.046 318.1 335.046 317.4C335.046 316.7 334.496 316.15 333.771 316.15C333.096 316.15 332.521 316.725 332.521 317.4ZM332.921 320.625V331H334.696V320.625H332.921ZM337.842 320.625V331H339.617V325.35C339.617 323.325 340.342 322.025 342.417 322.025C343.692 322.025 344.342 322.975 344.342 324.85V331H346.117V325.25C346.117 323.075 347.042 322.025 348.967 322.025C350.292 322.025 350.842 322.8 350.842 324.7V331H352.617V324.425C352.617 321.825 351.517 320.375 349.242 320.375C347.617 320.375 346.217 320.95 345.492 322.05C345.092 321.025 344.042 320.375 342.867 320.375C341.467 320.375 340.292 320.825 339.617 321.75V320.625H337.842ZM360.021 320.375C357.071 320.375 354.996 322.65 354.996 325.85C354.996 329.025 357.071 331.275 360.046 331.275C361.971 331.275 363.496 330.4 364.571 328.65L363.121 327.8C362.321 329.025 361.321 329.65 360.121 329.65C358.121 329.65 356.896 328.375 356.796 326.3H364.971V326C364.971 322.625 362.996 320.375 360.021 320.375ZM356.921 324.8C357.096 323.175 358.346 321.975 360.046 321.975C361.671 321.975 362.971 323.1 363.096 324.8H356.921ZM209.425 348.4C209.425 349.1 209.975 349.675 210.7 349.675C211.375 349.675 211.95 349.1 211.95 348.4C211.95 347.7 211.4 347.15 210.675 347.15C210 347.15 209.425 347.725 209.425 348.4ZM209.825 351.625V362H211.6V351.625H209.825ZM214.746 351.625V362H216.521V356.125C216.521 355.25 216.821 354.525 217.396 353.925C217.971 353.3 218.721 353 219.596 353C221.296 353 221.796 353.875 221.796 355.875V362H223.571V355.575C223.571 352.8 222.696 351.375 219.996 351.375C218.571 351.375 217.446 351.8 216.521 352.875V351.625H214.746ZM237.693 351.4C234.693 351.4 232.193 353.825 232.193 356.75C232.193 359.85 234.593 362.3 237.643 362.3C240.768 362.3 243.168 359.9 243.168 356.85C243.168 353.825 240.768 351.4 237.693 351.4ZM237.643 360.675C236.568 360.675 235.693 360.325 235.018 359.6C234.343 358.875 233.993 357.925 233.993 356.8C233.993 354.7 235.568 353.025 237.668 353.025C238.743 353.025 239.643 353.375 240.318 354.1C241.018 354.825 241.368 355.725 241.368 356.85C241.368 357.975 241.018 358.875 240.318 359.6C239.618 360.325 238.718 360.675 237.643 360.675ZM245.532 357.875C245.532 360.775 247.032 362.3 249.932 362.3C252.832 362.3 254.357 360.8 254.357 357.875V351.625H252.582V357.55C252.582 359.575 251.932 360.65 249.932 360.65C248.007 360.65 247.307 359.575 247.307 357.55V351.625H245.532V357.875ZM261.479 353.075C261.879 353.075 262.029 353.125 262.754 353.425L263.654 351.9C263.079 351.55 262.504 351.375 261.929 351.375C260.804 351.375 259.779 351.975 259.204 352.875V351.625H257.429V362H259.204V356.125C259.204 354.45 259.954 353.075 261.479 353.075ZM272.187 351.625H270.987V353.25H272.187V358.675C272.187 361.05 273.087 362.3 275.312 362.3C275.887 362.3 276.462 362.175 277.037 361.9L276.512 360.35C276.062 360.5 275.662 360.575 275.312 360.575C274.387 360.575 273.962 359.925 273.962 358.1V353.25H276.612V351.625H273.962V347.15H272.187V351.625ZM283.752 351.375C280.802 351.375 278.727 353.65 278.727 356.85C278.727 360.025 280.802 362.275 283.777 362.275C285.702 362.275 287.227 361.4 288.302 359.65L286.852 358.8C286.052 360.025 285.052 360.65 283.852 360.65C281.852 360.65 280.627 359.375 280.527 357.3H288.702V357C288.702 353.625 286.727 351.375 283.752 351.375ZM280.652 355.8C280.827 354.175 282.077 352.975 283.777 352.975C285.402 352.975 286.702 354.1 286.827 355.8H280.652ZM295.317 353.075C295.717 353.075 295.867 353.125 296.592 353.425L297.492 351.9C296.917 351.55 296.342 351.375 295.767 351.375C294.642 351.375 293.617 351.975 293.042 352.875V351.625H291.267V362H293.042V356.125C293.042 354.45 293.792 353.075 295.317 353.075ZM303.325 353.075C303.725 353.075 303.875 353.125 304.6 353.425L305.5 351.9C304.925 351.55 304.35 351.375 303.775 351.375C302.65 351.375 301.625 351.975 301.05 352.875V351.625H299.275V362H301.05V356.125C301.05 354.45 301.8 353.075 303.325 353.075ZM310.533 355.75C307.908 355.925 306.583 357.075 306.583 359.15C306.583 361.025 308.333 362.3 310.233 362.3C312.158 362.3 313.683 361.175 313.833 360.525L313.808 362H315.583V355.05C315.583 352.675 313.983 351.4 311.408 351.4C309.908 351.4 308.883 351.7 308.283 352.025L307.233 352.7L307.933 354.05C309.033 353.175 310.083 353.025 311.408 353.025C312.783 353.025 313.858 353.65 313.858 354.825V355.475L310.533 355.75ZM313.808 358.475C313.808 359.5 312.233 360.65 310.508 360.65C309.308 360.65 308.333 360 308.333 359C308.333 358.2 308.933 357.5 310.458 357.375L313.808 357.1V358.475ZM323.485 351.4C320.36 351.4 317.96 353.8 317.96 356.875C317.96 359.925 320.385 362.3 323.46 362.3C324.66 362.3 325.51 362.025 326.785 361.225L326.26 359.725C325.285 360.4 324.535 360.65 323.41 360.65C321.335 360.65 319.71 359 319.71 356.85C319.71 354.75 321.335 353.025 323.435 353.025C324.535 353.025 325.035 353.125 326.06 353.8L326.71 352.375C325.635 351.675 324.71 351.4 323.485 351.4ZM333.556 351.375C330.606 351.375 328.531 353.65 328.531 356.85C328.531 360.025 330.606 362.275 333.581 362.275C335.506 362.275 337.031 361.4 338.106 359.65L336.656 358.8C335.856 360.025 334.856 360.65 333.656 360.65C331.656 360.65 330.431 359.375 330.331 357.3H338.506V357C338.506 353.625 336.531 351.375 333.556 351.375ZM330.456 355.8C330.631 354.175 331.881 352.975 333.581 352.975C335.206 352.975 336.506 354.1 336.631 355.8H330.456Z" fill="white"/>
<path d="M111 443L175 443" stroke="white"/>
<path d="M38.9148 448.475C37.4898 448.475 36.3898 447.825 35.5648 446.5L34.0898 447.475C35.2148 449.3 36.7898 450.225 38.7898 450.225C41.8398 450.225 44.1648 447.95 44.1648 444.925C44.1648 442.3 42.3898 440.075 38.8648 440.075C38.5148 440.075 38.2398 440.1 38.0148 440.175L38.9148 436.925H44.1148V435.15H37.5648L35.8648 441.5L36.8648 442.375C37.5648 441.95 37.9898 441.7 38.8648 441.7C41.3648 441.7 42.4148 443.175 42.4148 444.95C42.4148 447.05 40.9148 448.475 38.9148 448.475ZM47.1092 454.4H48.8842V448.6C49.9092 449.775 51.0342 450.3 52.5092 450.3C55.3592 450.3 57.4592 448 57.4592 444.9C57.4592 441.75 55.3092 439.4 52.4592 439.4C50.8592 439.4 49.8842 439.925 48.8842 441.125V439.625H47.1092V454.4ZM52.2342 448.675C51.2342 448.675 50.4092 448.325 49.7842 447.6C49.1592 446.875 48.8342 445.95 48.8342 444.875C48.8342 443.8 49.1592 442.875 49.7842 442.15C50.4092 441.4 51.2342 441.025 52.2092 441.025C54.1342 441.025 55.6342 442.675 55.6342 444.825C55.6342 445.95 55.3092 446.875 54.6592 447.6C54.0342 448.325 53.2092 448.675 52.2342 448.675ZM59.8457 439.625V450H61.6207V444.35C61.6207 442.325 62.3457 441.025 64.4207 441.025C65.6957 441.025 66.3457 441.975 66.3457 443.85V450H68.1207V444.25C68.1207 442.075 69.0457 441.025 70.9707 441.025C72.2957 441.025 72.8457 441.8 72.8457 443.7V450H74.6207V443.425C74.6207 440.825 73.5207 439.375 71.2457 439.375C69.6207 439.375 68.2207 439.95 67.4957 441.05C67.0957 440.025 66.0457 439.375 64.8707 439.375C63.4707 439.375 62.2957 439.825 61.6207 440.75V439.625H59.8457Z" fill="white"/>
<path d="M208.875 432.775C209.95 433.75 211.425 434.3 212.925 434.3C215.7 434.3 217.325 433.05 217.325 431.025C217.325 429.35 216.125 428.525 213.85 428.025C211.75 427.6 211.05 427.325 211.05 426.5C211.05 425.575 211.875 425.025 213.375 425.025C214.35 425.025 215.3 425.375 216.25 426.075L216.9 424.625C216 423.85 214.75 423.4 213.375 423.4C210.875 423.4 209.275 424.65 209.275 426.525C209.275 428.125 210.675 429.05 212.675 429.475C214.25 429.8 214.8 429.925 215.225 430.325C215.45 430.525 215.575 430.8 215.575 431.125C215.575 432 214.575 432.65 213.075 432.65C211.9 432.65 211.075 432.35 210 431.55L208.875 432.775ZM223.277 427.75C220.652 427.925 219.327 429.075 219.327 431.15C219.327 433.025 221.077 434.3 222.977 434.3C224.902 434.3 226.427 433.175 226.577 432.525L226.552 434H228.327V427.05C228.327 424.675 226.727 423.4 224.152 423.4C222.652 423.4 221.627 423.7 221.027 424.025L219.977 424.7L220.677 426.05C221.777 425.175 222.827 425.025 224.152 425.025C225.527 425.025 226.602 425.65 226.602 426.825V427.475L223.277 427.75ZM226.552 430.475C226.552 431.5 224.977 432.65 223.252 432.65C222.052 432.65 221.077 432 221.077 431C221.077 430.2 221.677 429.5 223.202 429.375L226.552 429.1V430.475ZM231.079 429.875C231.079 432.775 232.579 434.3 235.479 434.3C238.379 434.3 239.904 432.8 239.904 429.875V423.625H238.129V429.55C238.129 431.575 237.479 432.65 235.479 432.65C233.554 432.65 232.854 431.575 232.854 429.55V423.625H231.079V429.875ZM242.651 423.625V434H244.426V428.125C244.426 427.25 244.726 426.525 245.301 425.925C245.876 425.3 246.626 425 247.501 425C249.201 425 249.701 425.875 249.701 427.875V434H251.476V427.575C251.476 424.8 250.601 423.375 247.901 423.375C246.476 423.375 245.351 423.8 244.426 424.875V423.625H242.651ZM257.799 427.75C255.174 427.925 253.849 429.075 253.849 431.15C253.849 433.025 255.599 434.3 257.499 434.3C259.424 434.3 260.949 433.175 261.099 432.525L261.074 434H262.849V427.05C262.849 424.675 261.249 423.4 258.674 423.4C257.174 423.4 256.149 423.7 255.549 424.025L254.499 424.7L255.199 426.05C256.299 425.175 257.349 425.025 258.674 425.025C260.049 425.025 261.124 425.65 261.124 426.825V427.475L257.799 427.75ZM261.074 430.475C261.074 431.5 259.499 432.65 257.774 432.65C256.574 432.65 255.599 432 255.599 431C255.599 430.2 256.199 429.5 257.724 429.375L261.074 429.1V430.475ZM276.801 427.5V432.55H278.326V427.5H283.451V425.975H278.326V420.95H276.801V425.975H271.676V427.5H276.801ZM296.66 425.075C297.06 425.075 297.21 425.125 297.935 425.425L298.835 423.9C298.26 423.55 297.685 423.375 297.11 423.375C295.985 423.375 294.96 423.975 294.385 424.875V423.625H292.61V434H294.385V428.125C294.385 426.45 295.135 425.075 296.66 425.075ZM304.87 423.375C301.92 423.375 299.845 425.65 299.845 428.85C299.845 432.025 301.92 434.275 304.895 434.275C306.82 434.275 308.345 433.4 309.42 431.65L307.97 430.8C307.17 432.025 306.17 432.65 304.97 432.65C302.97 432.65 301.745 431.375 301.645 429.3H309.82V429C309.82 425.625 307.845 423.375 304.87 423.375ZM301.77 427.8C301.945 426.175 303.195 424.975 304.895 424.975C306.52 424.975 307.82 426.1 307.945 427.8H301.77ZM322.036 419.15H320.261V425.1C319.486 423.975 318.186 423.4 316.786 423.4C313.811 423.4 311.686 425.7 311.686 428.8C311.686 431.95 313.836 434.3 316.686 434.3C318.111 434.3 319.311 433.725 320.261 432.575V434H322.036V419.15ZM316.911 425.025C317.911 425.025 318.736 425.4 319.361 426.125C319.986 426.85 320.311 427.75 320.311 428.825C320.311 429.9 319.986 430.825 319.361 431.575C318.736 432.3 317.911 432.675 316.936 432.675C315.011 432.675 313.511 431.025 313.511 428.875C313.511 427.75 313.836 426.85 314.461 426.125C315.111 425.4 315.936 425.025 316.911 425.025ZM331.697 419.15V434H333.472V419.15H331.697ZM336.598 420.4C336.598 421.1 337.148 421.675 337.873 421.675C338.548 421.675 339.123 421.1 339.123 420.4C339.123 419.7 338.573 419.15 337.848 419.15C337.173 419.15 336.598 419.725 336.598 420.4ZM336.998 423.625V434H338.773V423.625H336.998ZM351.044 423.625C349.969 423.625 349.194 423.775 348.669 424.075C347.919 423.6 347.069 423.375 346.094 423.375C343.594 423.375 341.644 425.175 341.644 427.475C341.644 428.975 342.369 430.275 343.544 431.075C342.644 431.475 342.194 432.125 342.194 432.85C342.194 434.125 343.194 435 345.569 434.875L347.194 434.8C348.469 434.725 349.094 434.975 349.094 435.775C349.094 436.625 348.119 437.05 346.144 437.05C344.669 437.05 343.844 436.775 342.819 436.15L341.819 437.375C342.919 438.25 344.444 438.675 346.419 438.675C349.144 438.675 350.794 437.7 350.794 435.9C350.794 434.225 349.819 433.4 347.844 433.4C347.569 433.4 347.344 433.4 347.194 433.425C346.169 433.5 345.519 433.525 345.294 433.525C344.169 433.525 343.719 433.325 343.719 432.725C343.719 432.1 344.494 431.85 346.069 431.85C348.619 431.85 350.569 430 350.569 427.525C350.569 426.575 350.294 425.75 349.744 425.05H351.044V423.625ZM348.819 427.55C348.819 429.125 347.694 430.25 346.094 430.25C344.519 430.25 343.419 429.1 343.419 427.5C343.419 426.075 344.544 424.925 346.119 424.925C347.694 424.925 348.819 426.05 348.819 427.55ZM353.564 419.15V434H355.339V428.125C355.339 427.25 355.639 426.525 356.214 425.925C356.789 425.3 357.539 425 358.414 425C360.114 425 360.614 425.875 360.614 427.875V434H362.389V427.575C362.389 424.8 361.514 423.375 358.814 423.375C357.389 423.375 356.264 423.8 355.339 424.875V419.15H353.564ZM365.962 423.625H364.762V425.25H365.962V430.675C365.962 433.05 366.862 434.3 369.087 434.3C369.662 434.3 370.237 434.175 370.812 433.9L370.287 432.35C369.837 432.5 369.437 432.575 369.087 432.575C368.162 432.575 367.737 431.925 367.737 430.1V425.25H370.387V423.625H367.737V419.15H365.962V423.625ZM210.2 454.625H209V456.25H210.2V461.675C210.2 464.05 211.1 465.3 213.325 465.3C213.9 465.3 214.475 465.175 215.05 464.9L214.525 463.35C214.075 463.5 213.675 463.575 213.325 463.575C212.4 463.575 211.975 462.925 211.975 461.1V456.25H214.625V454.625H211.975V450.15H210.2V454.625ZM217.358 450.15V465H219.133V459.125C219.133 458.25 219.433 457.525 220.008 456.925C220.583 456.3 221.333 456 222.208 456C223.908 456 224.408 456.875 224.408 458.875V465H226.183V458.575C226.183 455.8 225.308 454.375 222.608 454.375C221.183 454.375 220.058 454.8 219.133 455.875V450.15H217.358ZM233.581 454.375C230.631 454.375 228.556 456.65 228.556 459.85C228.556 463.025 230.631 465.275 233.606 465.275C235.531 465.275 237.056 464.4 238.131 462.65L236.681 461.8C235.881 463.025 234.881 463.65 233.681 463.65C231.681 463.65 230.456 462.375 230.356 460.3H238.531V460C238.531 456.625 236.556 454.375 233.581 454.375ZM230.481 458.8C230.656 457.175 231.906 455.975 233.606 455.975C235.231 455.975 236.531 457.1 236.656 458.8H230.481ZM245.146 456.075C245.546 456.075 245.696 456.125 246.421 456.425L247.321 454.9C246.746 454.55 246.171 454.375 245.596 454.375C244.471 454.375 243.446 454.975 242.871 455.875V454.625H241.096V465H242.871V459.125C242.871 457.45 243.621 456.075 245.146 456.075ZM252.354 458.75C249.729 458.925 248.404 460.075 248.404 462.15C248.404 464.025 250.154 465.3 252.054 465.3C253.979 465.3 255.504 464.175 255.654 463.525L255.629 465H257.404V458.05C257.404 455.675 255.804 454.4 253.229 454.4C251.729 454.4 250.704 454.7 250.104 455.025L249.054 455.7L249.754 457.05C250.854 456.175 251.904 456.025 253.229 456.025C254.604 456.025 255.679 456.65 255.679 457.825V458.475L252.354 458.75ZM255.629 461.475C255.629 462.5 254.054 463.65 252.329 463.65C251.129 463.65 250.154 463 250.154 462C250.154 461.2 250.754 460.5 252.279 460.375L255.629 460.1V461.475ZM260.481 469.4H262.256V463.6C263.281 464.775 264.406 465.3 265.881 465.3C268.731 465.3 270.831 463 270.831 459.9C270.831 456.75 268.681 454.4 265.831 454.4C264.231 454.4 263.256 454.925 262.256 456.125V454.625H260.481V469.4ZM265.606 463.675C264.606 463.675 263.781 463.325 263.156 462.6C262.531 461.875 262.206 460.95 262.206 459.875C262.206 458.8 262.531 457.875 263.156 457.15C263.781 456.4 264.606 456.025 265.581 456.025C267.506 456.025 269.006 457.675 269.006 459.825C269.006 460.95 268.681 461.875 268.031 462.6C267.406 463.325 266.581 463.675 265.606 463.675ZM282.843 454.625H280.943L277.543 462.95L273.943 454.625H272.043L276.618 465L276.368 465.575C275.668 467.275 275.318 467.825 274.418 467.825C274.143 467.825 273.818 467.775 273.468 467.65L272.943 469.325C273.393 469.5 273.843 469.575 274.318 469.575C275.643 469.575 276.693 468.75 277.393 467.325L282.843 454.625Z" fill="white"/>
<path d="M108 546L172 546" stroke="white"/>
<path d="M5.17695 544.8C4.35195 545.95 3.95195 547.1 3.95195 548.25C3.95195 551 6.30195 553.3 9.10195 553.3C11.927 553.3 14.227 551 14.227 548.175C14.227 545.45 11.952 543.225 9.42695 543.225C9.12695 543.225 8.80195 543.275 8.42695 543.35L12.127 538.15H9.95195L5.17695 544.8ZM9.10195 551.55C7.27695 551.55 5.80195 550.025 5.80195 548.225C5.80195 546.4 7.27695 544.925 9.10195 544.925C10.902 544.925 12.377 546.425 12.377 548.275C12.377 550.025 10.852 551.55 9.10195 551.55ZM15.5898 546.875V548.475H20.1148V546.875H15.5898ZM24.6074 539.925V553H26.4824V538.15H22.6074V539.925H24.6074ZM35.9691 537.975C33.0441 537.9 30.5191 541.375 30.5941 545.55C30.5441 549.4 32.7191 553.375 35.9691 553.275C39.1691 553.375 41.3441 549.425 41.3191 545.575C41.3191 541.3 38.9941 537.975 35.9691 537.975ZM39.4691 545.625C39.4691 548.875 37.8691 551.525 35.9691 551.525C33.9691 551.525 32.4441 548.975 32.4441 545.575C32.4441 542.3 33.9941 539.7 35.9441 539.7C37.9191 539.7 39.4691 542.275 39.4691 545.625ZM44.1092 557.4H45.8842V551.6C46.9092 552.775 48.0342 553.3 49.5092 553.3C52.3592 553.3 54.4592 551 54.4592 547.9C54.4592 544.75 52.3092 542.4 49.4592 542.4C47.8592 542.4 46.8842 542.925 45.8842 544.125V542.625H44.1092V557.4ZM49.2342 551.675C48.2342 551.675 47.4092 551.325 46.7842 550.6C46.1592 549.875 45.8342 548.95 45.8342 547.875C45.8342 546.8 46.1592 545.875 46.7842 545.15C47.4092 544.4 48.2342 544.025 49.2092 544.025C51.1342 544.025 52.6342 545.675 52.6342 547.825C52.6342 548.95 52.3092 549.875 51.6592 550.6C51.0342 551.325 50.2092 551.675 49.2342 551.675ZM56.8457 542.625V553H58.6207V547.35C58.6207 545.325 59.3457 544.025 61.4207 544.025C62.6957 544.025 63.3457 544.975 63.3457 546.85V553H65.1207V547.25C65.1207 545.075 66.0457 544.025 67.9707 544.025C69.2957 544.025 69.8457 544.8 69.8457 546.7V553H71.6207V546.425C71.6207 543.825 70.5207 542.375 68.2457 542.375C66.6207 542.375 65.2207 542.95 64.4957 544.05C64.0957 543.025 63.0457 542.375 61.8707 542.375C60.4707 542.375 59.2957 542.825 58.6207 543.75V542.625H56.8457Z" fill="white"/>
<path d="M211.025 526.375C208.075 526.375 206 528.65 206 531.85C206 535.025 208.075 537.275 211.05 537.275C212.975 537.275 214.5 536.4 215.575 534.65L214.125 533.8C213.325 535.025 212.325 535.65 211.125 535.65C209.125 535.65 207.9 534.375 207.8 532.3H215.975V532C215.975 528.625 214 526.375 211.025 526.375ZM207.925 530.8C208.1 529.175 209.35 527.975 211.05 527.975C212.675 527.975 213.975 529.1 214.1 530.8H207.925ZM217.041 526.625L221.816 537H222.466L227.216 526.625H225.266L222.166 533.825L218.991 526.625H217.041ZM233.437 526.375C230.487 526.375 228.412 528.65 228.412 531.85C228.412 535.025 230.487 537.275 233.462 537.275C235.387 537.275 236.912 536.4 237.987 534.65L236.537 533.8C235.737 535.025 234.737 535.65 233.537 535.65C231.537 535.65 230.312 534.375 230.212 532.3H238.387V532C238.387 528.625 236.412 526.375 233.437 526.375ZM230.337 530.8C230.512 529.175 231.762 527.975 233.462 527.975C235.087 527.975 236.387 529.1 236.512 530.8H230.337ZM240.628 526.625V537H242.403V531.125C242.403 530.25 242.703 529.525 243.278 528.925C243.853 528.3 244.603 528 245.478 528C247.178 528 247.678 528.875 247.678 530.875V537H249.453V530.575C249.453 527.8 248.578 526.375 245.878 526.375C244.453 526.375 243.328 526.8 242.403 527.875V526.625H240.628ZM253.025 526.625H251.825V528.25H253.025V533.675C253.025 536.05 253.925 537.3 256.15 537.3C256.725 537.3 257.3 537.175 257.875 536.9L257.35 535.35C256.9 535.5 256.5 535.575 256.15 535.575C255.225 535.575 254.8 534.925 254.8 533.1V528.25H257.45V526.625H254.8V522.15H253.025V526.625ZM259.732 535.775C260.807 536.75 262.282 537.3 263.782 537.3C266.557 537.3 268.182 536.05 268.182 534.025C268.182 532.35 266.982 531.525 264.707 531.025C262.607 530.6 261.907 530.325 261.907 529.5C261.907 528.575 262.732 528.025 264.232 528.025C265.207 528.025 266.157 528.375 267.107 529.075L267.757 527.625C266.857 526.85 265.607 526.4 264.232 526.4C261.732 526.4 260.132 527.65 260.132 529.525C260.132 531.125 261.532 532.05 263.532 532.475C265.107 532.8 265.657 532.925 266.082 533.325C266.307 533.525 266.432 533.8 266.432 534.125C266.432 535 265.432 535.65 263.932 535.65C262.757 535.65 261.932 535.35 260.857 534.55L259.732 535.775ZM281.638 530.5V535.55H283.163V530.5H288.288V528.975H283.163V523.95H281.638V528.975H276.513V530.5H281.638ZM297.447 522.15V537H299.222V522.15H297.447ZM305.873 530.75C303.248 530.925 301.923 532.075 301.923 534.15C301.923 536.025 303.673 537.3 305.573 537.3C307.498 537.3 309.023 536.175 309.173 535.525L309.148 537H310.923V530.05C310.923 527.675 309.323 526.4 306.748 526.4C305.248 526.4 304.223 526.7 303.623 527.025L302.573 527.7L303.273 529.05C304.373 528.175 305.423 528.025 306.748 528.025C308.123 528.025 309.198 528.65 309.198 529.825V530.475L305.873 530.75ZM309.148 533.475C309.148 534.5 307.573 535.65 305.848 535.65C304.648 535.65 303.673 535 303.673 534C303.673 533.2 304.273 532.5 305.798 532.375L309.148 532.1V533.475ZM314.5 526.625H313.3V528.25H314.5V533.675C314.5 536.05 315.4 537.3 317.625 537.3C318.2 537.3 318.775 537.175 319.35 536.9L318.825 535.35C318.375 535.5 317.975 535.575 317.625 535.575C316.7 535.575 316.275 534.925 316.275 533.1V528.25H318.925V526.625H316.275V522.15H314.5V526.625ZM326.064 526.375C323.114 526.375 321.039 528.65 321.039 531.85C321.039 535.025 323.114 537.275 326.089 537.275C328.014 537.275 329.539 536.4 330.614 534.65L329.164 533.8C328.364 535.025 327.364 535.65 326.164 535.65C324.164 535.65 322.939 534.375 322.839 532.3H331.014V532C331.014 528.625 329.039 526.375 326.064 526.375ZM322.964 530.8C323.139 529.175 324.389 527.975 326.089 527.975C327.714 527.975 329.014 529.1 329.139 530.8H322.964ZM339.505 526.625V537H341.28V531.125C341.28 530.25 341.58 529.525 342.155 528.925C342.73 528.3 343.48 528 344.355 528C346.055 528 346.555 528.875 346.555 530.875V537H348.33V530.575C348.33 527.8 347.455 526.375 344.755 526.375C343.33 526.375 342.205 526.8 341.28 527.875V526.625H339.505ZM351.127 523.4C351.127 524.1 351.677 524.675 352.402 524.675C353.077 524.675 353.652 524.1 353.652 523.4C353.652 522.7 353.102 522.15 352.377 522.15C351.702 522.15 351.127 522.725 351.127 523.4ZM351.527 526.625V537H353.302V526.625H351.527ZM365.573 526.625C364.498 526.625 363.723 526.775 363.198 527.075C362.448 526.6 361.598 526.375 360.623 526.375C358.123 526.375 356.173 528.175 356.173 530.475C356.173 531.975 356.898 533.275 358.073 534.075C357.173 534.475 356.723 535.125 356.723 535.85C356.723 537.125 357.723 538 360.098 537.875L361.723 537.8C362.998 537.725 363.623 537.975 363.623 538.775C363.623 539.625 362.648 540.05 360.673 540.05C359.198 540.05 358.373 539.775 357.348 539.15L356.348 540.375C357.448 541.25 358.973 541.675 360.948 541.675C363.673 541.675 365.323 540.7 365.323 538.9C365.323 537.225 364.348 536.4 362.373 536.4C362.098 536.4 361.873 536.4 361.723 536.425C360.698 536.5 360.048 536.525 359.823 536.525C358.698 536.525 358.248 536.325 358.248 535.725C358.248 535.1 359.023 534.85 360.598 534.85C363.148 534.85 365.098 533 365.098 530.525C365.098 529.575 364.823 528.75 364.273 528.05H365.573V526.625ZM363.348 530.55C363.348 532.125 362.223 533.25 360.623 533.25C359.048 533.25 357.948 532.1 357.948 530.5C357.948 529.075 359.073 527.925 360.648 527.925C362.223 527.925 363.348 529.05 363.348 530.55ZM368.094 522.15V537H369.869V531.125C369.869 530.25 370.169 529.525 370.744 528.925C371.319 528.3 372.069 528 372.944 528C374.644 528 375.144 528.875 375.144 530.875V537H376.919V530.575C376.919 527.8 376.044 526.375 373.344 526.375C371.919 526.375 370.794 526.8 369.869 527.875V522.15H368.094ZM380.491 526.625H379.291V528.25H380.491V533.675C380.491 536.05 381.391 537.3 383.616 537.3C384.191 537.3 384.766 537.175 385.341 536.9L384.816 535.35C384.366 535.5 383.966 535.575 383.616 535.575C382.691 535.575 382.266 534.925 382.266 533.1V528.25H384.916V526.625H382.266V522.15H380.491V526.625ZM211.525 557.4C208.4 557.4 206 559.8 206 562.875C206 565.925 208.425 568.3 211.5 568.3C212.7 568.3 213.55 568.025 214.825 567.225L214.3 565.725C213.325 566.4 212.575 566.65 211.45 566.65C209.375 566.65 207.75 565 207.75 562.85C207.75 560.75 209.375 559.025 211.475 559.025C212.575 559.025 213.075 559.125 214.1 559.8L214.75 558.375C213.675 557.675 212.75 557.4 211.525 557.4ZM222.071 557.4C219.071 557.4 216.571 559.825 216.571 562.75C216.571 565.85 218.971 568.3 222.021 568.3C225.146 568.3 227.546 565.9 227.546 562.85C227.546 559.825 225.146 557.4 222.071 557.4ZM222.021 566.675C220.946 566.675 220.071 566.325 219.396 565.6C218.721 564.875 218.371 563.925 218.371 562.8C218.371 560.7 219.946 559.025 222.046 559.025C223.121 559.025 224.021 559.375 224.696 560.1C225.396 560.825 225.746 561.725 225.746 562.85C225.746 563.975 225.396 564.875 224.696 565.6C223.996 566.325 223.096 566.675 222.021 566.675ZM229.035 561.875V563.475H233.56V561.875H229.035ZM234.253 557.625L238.628 568H239.253L242.153 561L245.053 568H245.678L250.103 557.625H248.228L245.378 564.625L242.528 557.625H241.828L238.953 564.625L236.128 557.625H234.253ZM256.446 557.4C253.446 557.4 250.946 559.825 250.946 562.75C250.946 565.85 253.346 568.3 256.396 568.3C259.521 568.3 261.921 565.9 261.921 562.85C261.921 559.825 259.521 557.4 256.446 557.4ZM256.396 566.675C255.321 566.675 254.446 566.325 253.771 565.6C253.096 564.875 252.746 563.925 252.746 562.8C252.746 560.7 254.321 559.025 256.421 559.025C257.496 559.025 258.396 559.375 259.071 560.1C259.771 560.825 260.121 561.725 260.121 562.85C260.121 563.975 259.771 564.875 259.071 565.6C258.371 566.325 257.471 566.675 256.396 566.675ZM268.66 559.075C269.06 559.075 269.21 559.125 269.935 559.425L270.835 557.9C270.26 557.55 269.685 557.375 269.11 557.375C267.985 557.375 266.96 557.975 266.385 558.875V557.625H264.61V568H266.385V562.125C266.385 560.45 267.135 559.075 268.66 559.075ZM272.618 553.15V568H274.393V563.75L274.843 563.275L279.093 568H281.318L276.043 562.1L280.518 557.625H278.318L274.393 561.475V553.15H272.618Z" fill="white"/>
</svg>
